<?xml version="1.0" encoding="UTF-8"?>
<!DOCTYPE svg PUBLIC "-//W3C//DTD SVG 1.1//EN" "http://www.w3.org/Graphics/SVG/1.1/DTD/svg11.dtd">
<svg xmlns="http://www.w3.org/2000/svg" version="1.1" width="514px" height="323px" style="shape-rendering:geometricPrecision; text-rendering:geometricPrecision; image-rendering:optimizeQuality; fill-rule:evenodd; clip-rule:evenodd" xmlns:xlink="http://www.w3.org/1999/xlink">
<g><path style="opacity:0.917" fill="#fefffe" d="M 365.5,1.5 C 370.451,6.04961 374.951,11.0496 379,16.5C 389.581,35.3304 400.414,53.9971 411.5,72.5C 411.985,68.6958 413.652,65.5291 416.5,63C 418.377,62.4242 420.211,62.5909 422,63.5C 423.285,63.0496 424.452,62.3829 425.5,61.5C 427.62,62.4033 427.954,63.7367 426.5,65.5C 424.709,67.4597 422.543,68.793 420,69.5C 418.199,73.6087 416.032,77.442 413.5,81C 412.5,81.6667 411.5,81.6667 410.5,81C 407.6,78.6032 405.267,75.7698 403.5,72.5C 403.719,80.8536 400.719,88.0203 394.5,94C 392.283,95.2754 389.949,96.2754 387.5,97C 381.872,105.819 373.872,111.152 363.5,113C 357.584,113.19 351.751,113.69 346,114.5C 345.586,114.043 345.086,113.709 344.5,113.5C 343.139,115.028 341.972,116.695 341,118.5C 339.759,126.186 338.426,133.853 337,141.5C 335.175,146.441 332.009,147.607 327.5,145C 320.455,138.623 314.955,131.123 311,122.5C 310.759,127.705 310.259,132.872 309.5,138C 322.115,157.458 319.782,174.791 302.5,190C 296.074,191.088 292.741,188.254 292.5,181.5C 296.248,168.673 299.914,155.84 303.5,143C 298.692,137.76 292.692,135.76 285.5,137C 270.992,140.758 257.325,146.424 244.5,154C 243.065,156.267 243.398,158.267 245.5,160C 244.833,160.667 244.167,161.333 243.5,162C 239.55,162.462 235.716,163.296 232,164.5C 229.697,162.662 229.031,160.328 230,157.5C 231.5,156 233,154.5 234.5,153C 245.523,146.822 256.857,141.155 268.5,136C 275.95,133.238 283.617,131.405 291.5,130.5C 295.961,130.989 300.127,132.322 304,134.5C 304.807,125.454 304.474,116.454 303,107.5C 298.447,93.7242 292.781,80.3909 286,67.5C 285.408,62.3021 287.241,61.3021 291.5,64.5C 299.92,79.922 307.087,95.922 313,112.5C 316.414,118.997 320.081,125.33 324,131.5C 326.123,134.113 328.456,136.446 331,138.5C 331.741,135.438 331.575,132.438 330.5,129.5C 332.69,121.915 336.024,114.915 340.5,108.5C 348.118,107.699 355.784,107.199 363.5,107C 371.285,106.121 376.951,102.287 380.5,95.5C 379.351,93.2029 378.185,90.8696 377,88.5C 376.377,82.1628 378.877,80.8295 384.5,84.5C 385.688,86.9885 387.021,89.3218 388.5,91.5C 395.544,88.2439 398.878,82.7439 398.5,75C 398.677,70.6303 397.843,66.4636 396,62.5C 387.46,43.7483 377.126,26.0817 365,9.5C 362.889,6.56724 363.056,3.90058 365.5,1.5 Z M 307.5,148.5 C 311.239,154.22 312.406,160.553 311,167.5C 309.695,174.447 306.362,180.113 301,184.5C 300.296,182.722 299.796,180.888 299.5,179C 301.477,168.601 304.143,158.435 307.5,148.5 Z"/></g>
<g><path style="opacity:0.012" fill="#fefffe" d="M 208.5,2.5 C 209.833,3.16667 209.833,3.16667 208.5,2.5 Z"/></g>
<g><path style="opacity:0.033" fill="#fefffe" d="M 201.5,5.5 C 201.897,4.47498 202.563,4.30831 203.5,5C 202.906,5.46434 202.239,5.63101 201.5,5.5 Z"/></g>
<g><path style="opacity:0.012" fill="#fefffe" d="M 48.5,6.5 C 49.8333,7.16667 49.8333,7.16667 48.5,6.5 Z"/></g>
<g><path style="opacity:0.012" fill="#fefffe" d="M 41.5,8.5 C 42.8333,9.16667 42.8333,9.16667 41.5,8.5 Z"/></g>
<g><path style="opacity:0.012" fill="#fefffe" d="M 152.5,8.5 C 153.833,9.16667 153.833,9.16667 152.5,8.5 Z"/></g>
<g><path style="opacity:0.012" fill="#fefffe" d="M 294.5,8.5 C 295.833,9.16667 295.833,9.16667 294.5,8.5 Z"/></g>
<g><path style="opacity:0.012" fill="#fefffe" d="M 437.5,26.5 C 438.833,27.1667 438.833,27.1667 437.5,26.5 Z"/></g>
<g><path style="opacity:0.841" fill="#fefffe" d="M 427.5,29.5 C 433.499,29.002 435.666,31.6687 434,37.5C 432.901,40.0387 431.234,40.7054 429,39.5C 428.784,37.6161 428.117,35.9494 427,34.5C 426.36,32.735 426.527,31.0683 427.5,29.5 Z"/></g>
<g><path style="opacity:0.031" fill="#fefffe" d="M 321.5,30.5 C 322.833,31.1667 322.833,31.1667 321.5,30.5 Z"/></g>
<g><path style="opacity:0.012" fill="#fefffe" d="M 136.5,37.5 C 137.833,38.1667 137.833,38.1667 136.5,37.5 Z"/></g>
<g><path style="opacity:0.012" fill="#fefffe" d="M 261.5,41.5 C 262.833,42.1667 262.833,42.1667 261.5,41.5 Z"/></g>
<g><path style="opacity:0.031" fill="#fefffe" d="M 208.5,44.5 C 209.833,45.1667 209.833,45.1667 208.5,44.5 Z"/></g>
<g><path style="opacity:0.055" fill="#fefffe" d="M 326.5,48.5 C 327.833,49.1667 327.833,49.1667 326.5,48.5 Z"/></g>
<g><path style="opacity:0.012" fill="#fefffe" d="M 306.5,60.5 C 307.833,61.1667 307.833,61.1667 306.5,60.5 Z"/></g>
<g><path style="opacity:0.055" fill="#fefffe" d="M 342.5,75.5 C 342.897,74.475 343.563,74.3083 344.5,75C 343.906,75.4643 343.239,75.631 342.5,75.5 Z"/></g>
<g><path style="opacity:0.889" fill="#fefffe" d="M 501.5,74.5 C 505.367,73.7747 508.034,75.1081 509.5,78.5C 507.822,83.3562 505.489,87.8562 502.5,92C 454.63,123.521 405.964,153.854 356.5,183C 305.021,214.838 255.521,249.338 208,286.5C 206.559,285.13 204.892,284.13 203,283.5C 201.919,277.959 204.085,275.959 209.5,277.5C 281.262,224.438 355.928,175.604 433.5,131C 449.5,120.667 465.5,110.333 481.5,100C 488.129,95.4283 494.296,90.2616 500,84.5C 501.954,82.2149 501.787,80.0483 499.5,78C 500.305,76.8873 500.972,75.7206 501.5,74.5 Z"/></g>
<g><path style="opacity:0.012" fill="#fefffe" d="M 77.5,76.5 C 78.8333,77.1667 78.8333,77.1667 77.5,76.5 Z"/></g>
<g><path style="opacity:0.012" fill="#fefffe" d="M 365.5,78.5 C 366.833,79.1667 366.833,79.1667 365.5,78.5 Z"/></g>
<g><path style="opacity:0.022" fill="#fefffe" d="M 316.5,80.5 C 316.897,79.475 317.563,79.3083 318.5,80C 317.906,80.4643 317.239,80.631 316.5,80.5 Z"/></g>
<g><path style="opacity:0.031" fill="#fefffe" d="M 235.5,80.5 C 236.833,81.1667 236.833,81.1667 235.5,80.5 Z"/></g>
<g><path style="opacity:0.043" fill="#fefffe" d="M 140.5,85.5 C 140.897,84.475 141.563,84.3083 142.5,85C 141.906,85.4643 141.239,85.631 140.5,85.5 Z"/></g>
<g><path style="opacity:0.012" fill="#fefffe" d="M 152.5,87.5 C 153.833,88.1667 153.833,88.1667 152.5,87.5 Z"/></g>
<g><path style="opacity:0.012" fill="#fefffe" d="M 228.5,87.5 C 229.833,88.1667 229.833,88.1667 228.5,87.5 Z"/></g>
<g><path style="opacity:0.012" fill="#fefffe" d="M 332.5,88.5 C 333.833,89.1667 333.833,89.1667 332.5,88.5 Z"/></g>
<g><path style="opacity:0.012" fill="#fefffe" d="M 485.5,90.5 C 486.833,91.1667 486.833,91.1667 485.5,90.5 Z"/></g>
<g><path style="opacity:0.012" fill="#fefffe" d="M 1.5,92.5 C 2.83333,93.1667 2.83333,93.1667 1.5,92.5 Z"/></g>
<g><path style="opacity:0.012" fill="#fefffe" d="M 313.5,93.5 C 314.833,94.1667 314.833,94.1667 313.5,93.5 Z"/></g>
<g><path style="opacity:0.012" fill="#fefffe" d="M 308.5,94.5 C 309.833,95.1667 309.833,95.1667 308.5,94.5 Z"/></g>
<g><path style="opacity:0.031" fill="#fefffe" d="M 413.5,96.5 C 414.833,97.1667 414.833,97.1667 413.5,96.5 Z"/></g>
<g><path style="opacity:0.055" fill="#fefffe" d="M 254.5,97.5 C 255.833,98.1667 255.833,98.1667 254.5,97.5 Z"/></g>
<g><path style="opacity:0.055" fill="#fefffe" d="M 277.5,97.5 C 278.833,98.1667 278.833,98.1667 277.5,97.5 Z"/></g>
<g><path style="opacity:0.041" fill="#fefffe" d="M 334.5,99.5 C 335.773,100.077 335.773,100.743 334.5,101.5C 333.537,101.03 333.537,100.363 334.5,99.5 Z"/></g>
<g><path style="opacity:0.012" fill="#fefffe" d="M 411.5,103.5 C 412.833,104.167 412.833,104.167 411.5,103.5 Z"/></g>
<g><path style="opacity:0.031" fill="#fefffe" d="M 324.5,104.5 C 325.833,105.167 325.833,105.167 324.5,104.5 Z"/></g>
<g><path style="opacity:0.012" fill="#fefffe" d="M 291.5,109.5 C 292.833,110.167 292.833,110.167 291.5,109.5 Z"/></g>
<g><path style="opacity:0.031" fill="#fefffe" d="M 321.5,109.5 C 322.833,110.167 322.833,110.167 321.5,109.5 Z"/></g>
<g><path style="opacity:0.012" fill="#fefffe" d="M 408.5,109.5 C 409.833,110.167 409.833,110.167 408.5,109.5 Z"/></g>
<g><path style="opacity:0.012" fill="#fefffe" d="M 176.5,110.5 C 177.833,111.167 177.833,111.167 176.5,110.5 Z"/></g>
<g><path style="opacity:0.043" fill="#fefffe" d="M 321.5,115.5 C 321.897,114.475 322.563,114.308 323.5,115C 322.906,115.464 322.239,115.631 321.5,115.5 Z"/></g>
<g><path style="opacity:0.055" fill="#fefffe" d="M 231.5,116.5 C 232.833,117.167 232.833,117.167 231.5,116.5 Z"/></g>
<g><path style="opacity:0.012" fill="#fefffe" d="M 296.5,118.5 C 297.833,119.167 297.833,119.167 296.5,118.5 Z"/></g>
<g><path style="opacity:0.018" fill="#fefffe" d="M 331.5,118.5 C 334.001,118.511 334.168,119.178 332,120.5C 331.536,119.906 331.369,119.239 331.5,118.5 Z"/></g>
<g><path style="opacity:0.012" fill="#fefffe" d="M 272.5,119.5 C 273.833,120.167 273.833,120.167 272.5,119.5 Z"/></g>
<g><path style="opacity:0.012" fill="#fefffe" d="M 435.5,120.5 C 435.897,119.475 436.563,119.308 437.5,120C 436.906,120.464 436.239,120.631 435.5,120.5 Z"/></g>
<g><path style="opacity:0.012" fill="#fefffe" d="M 194.5,120.5 C 195.833,121.167 195.833,121.167 194.5,120.5 Z"/></g>
<g><path style="opacity:0.033" fill="#fefffe" d="M 231.5,121.5 C 231.897,120.475 232.563,120.308 233.5,121C 232.906,121.464 232.239,121.631 231.5,121.5 Z"/></g>
<g><path style="opacity:0.043" fill="#fefffe" d="M 234.5,121.5 C 234.897,120.475 235.563,120.308 236.5,121C 235.906,121.464 235.239,121.631 234.5,121.5 Z"/></g>
<g><path style="opacity:0.055" fill="#fefffe" d="M 328.5,127.5 C 329.833,128.167 329.833,128.167 328.5,127.5 Z"/></g>
<g><path style="opacity:0.055" fill="#fefffe" d="M 249.5,128.5 C 250.833,129.167 250.833,129.167 249.5,128.5 Z"/></g>
<g><path style="opacity:0.012" fill="#fefffe" d="M 326.5,128.5 C 327.833,129.167 327.833,129.167 326.5,128.5 Z"/></g>
<g><path style="opacity:0.012" fill="#fefffe" d="M 232.5,129.5 C 233.833,130.167 233.833,130.167 232.5,129.5 Z"/></g>
<g><path style="opacity:0.012" fill="#fefffe" d="M 171.5,130.5 C 172.833,131.167 172.833,131.167 171.5,130.5 Z"/></g>
<g><path style="opacity:0.903" fill="#fefffe" d="M 173.5,132.5 C 178.188,135.707 181.688,140.04 184,145.5C 186.71,168.574 194.71,189.574 208,208.5C 212.524,203.312 217.691,198.812 223.5,195C 235.019,191.617 246.352,187.617 257.5,183C 265.016,179.078 272.016,174.411 278.5,169C 279.448,168.517 280.448,168.351 281.5,168.5C 281.657,169.873 281.49,171.207 281,172.5C 278.433,176.7 274.933,179.867 270.5,182C 264.5,185.333 258.5,188.667 252.5,192C 244.88,194.488 237.213,196.822 229.5,199C 219.065,202.788 214.232,210.288 215,221.5C 213.938,222.899 212.605,223.899 211,224.5C 208.013,222.846 205.679,220.513 204,217.5C 198.333,206.833 192.667,196.167 187,185.5C 184.803,192.227 181.803,198.561 178,204.5C 169.491,217.518 160.491,230.185 151,242.5C 149.991,244.025 149.491,245.692 149.5,247.5C 154.174,247.333 158.841,246.999 163.5,246.5C 167.411,246.297 171.078,247.13 174.5,249C 175.591,251.064 175.758,253.231 175,255.5C 165.79,264.026 154.957,267.859 142.5,267C 137.74,264.647 135.74,260.814 136.5,255.5C 122.534,257.503 108.868,256.336 95.5,252C 93.404,250.234 91.0707,248.901 88.5,248C 89.3402,246.334 88.8402,246.167 87,247.5C 86.3333,249.167 86.3333,250.833 87,252.5C 94.2798,272.628 102.613,292.295 112,311.5C 113.072,314.553 112.072,316.553 109,317.5C 106.679,316.513 105.013,314.846 104,312.5C 94.6206,292.756 86.1206,272.756 78.5,252.5C 71.5,256.667 64.5,260.833 57.5,265C 55.4376,266.532 54.1043,268.532 53.5,271C 56.7258,277.289 59.5591,283.789 62,290.5C 62.8141,292.902 62.6474,295.235 61.5,297.5C 60.3914,298.59 59.3914,298.59 58.5,297.5C 54.3121,289.029 49.9788,280.695 45.5,272.5C 35.336,278.081 25.336,283.914 15.5,290C 12.6793,292.717 13.0126,295.05 16.5,297C 15.5838,297.374 14.7504,297.874 14,298.5C 10.9243,297.712 7.75767,297.212 4.5,297C 1.80278,293.729 2.13611,290.729 5.5,288C 18.8211,281.677 31.4878,274.344 43.5,266C 41.1427,262.815 39.476,259.315 38.5,255.5C 38.7093,254.914 39.0426,254.414 39.5,254C 38.2624,254.077 37.2624,253.911 36.5,253.5C 36.6938,251.93 36.6938,250.43 36.5,249C 39.406,247.682 42.406,247.348 45.5,248C 46.7014,248.903 47.5348,250.069 48,251.5C 48.1051,255.37 48.9385,259.037 50.5,262.5C 58.8333,257.667 67.1667,252.833 75.5,248C 73.018,229.697 65.3514,213.697 52.5,200C 51.0069,198.632 49.5069,198.465 48,199.5C 47.6121,198.572 46.9454,197.905 46,197.5C 41.2728,199.569 37.1062,202.403 33.5,206C 31.683,207.8 30.5163,209.966 30,212.5C 29.3333,211.167 28.6667,211.167 28,212.5C 27.5078,213.549 27.6744,214.549 28.5,215.5C 27.4783,216.354 26.6449,217.354 26,218.5C 25.6667,217.833 25.3333,217.167 25,216.5C 22.0335,218.933 22.2002,220.433 25.5,221C 22.3522,223.109 20.0189,225.942 18.5,229.5C 18.7093,230.086 19.0426,230.586 19.5,231C 17.4667,234.103 16.3,237.603 16,241.5C 15.9967,245.567 15.8301,249.567 15.5,253.5C 13.9361,254.186 12.2694,254.019 10.5,253C 8.07517,251.237 6.40851,248.903 5.5,246C 10.9204,226.819 20.9204,210.486 35.5,197C 42.9565,190.208 50.6232,189.875 58.5,196C 65.8954,203.401 71.7287,211.901 76,221.5C 78.0429,228.677 80.5429,235.677 83.5,242.5C 95.0835,233.417 107.084,224.917 119.5,217C 130.302,211.432 140.635,205.099 150.5,198C 154.311,196.261 158.311,195.428 162.5,195.5C 162.657,196.873 162.49,198.207 162,199.5C 142.92,212.293 123.42,224.459 103.5,236C 100.359,237.886 97.692,240.22 95.5,243C 99.1549,246.325 103.488,248.325 108.5,249C 119.226,249.903 129.893,249.569 140.5,248C 150.534,234.112 160.7,220.279 171,206.5C 175.469,199.229 179.135,191.562 182,183.5C 182.667,180.5 182.667,177.5 182,174.5C 177.351,162.098 173.518,149.431 170.5,136.5C 170.787,134.557 171.787,133.223 173.5,132.5 Z M 162.5,252.5 C 164.322,253.325 165.989,253.658 167.5,253.5C 166.636,255.197 165.303,256.363 163.5,257C 159.464,258.404 155.464,259.738 151.5,261C 148.901,261.769 146.401,261.602 144,260.5C 143.257,258.559 143.424,256.726 144.5,255C 150.673,254.355 156.673,253.522 162.5,252.5 Z"/></g>
<g><path style="opacity:0.041" fill="#fefffe" d="M 180.5,133.5 C 181.251,132.427 182.251,132.26 183.5,133C 182.552,133.483 181.552,133.649 180.5,133.5 Z"/></g>
<g><path style="opacity:0.012" fill="#fefffe" d="M 65.5,133.5 C 66.8333,134.167 66.8333,134.167 65.5,133.5 Z"/></g>
<g><path style="opacity:0.047" fill="#fefffe" d="M 185.5,139.5 C 186.251,138.427 187.251,138.26 188.5,139C 187.552,139.483 186.552,139.649 185.5,139.5 Z"/></g>
<g><path style="opacity:0.012" fill="#fefffe" d="M 363.5,140.5 C 364.833,141.167 364.833,141.167 363.5,140.5 Z"/></g>
<g><path style="opacity:0.012" fill="#fefffe" d="M 361.5,141.5 C 362.833,142.167 362.833,142.167 361.5,141.5 Z"/></g>
<g><path style="opacity:0.012" fill="#fefffe" d="M 147.5,145.5 C 148.833,146.167 148.833,146.167 147.5,145.5 Z"/></g>
<g><path style="opacity:0.055" fill="#fefffe" d="M 128.5,151.5 C 129.833,152.167 129.833,152.167 128.5,151.5 Z"/></g>
<g><path style="opacity:0.031" fill="#fefffe" d="M 288.5,159.5 C 289.833,160.167 289.833,160.167 288.5,159.5 Z"/></g>
<g><path style="opacity:0.055" fill="#fefffe" d="M 296.5,159.5 C 297.833,160.167 297.833,160.167 296.5,159.5 Z"/></g>
<g><path style="opacity:0.012" fill="#fefffe" d="M 128.5,165.5 C 129.833,166.167 129.833,166.167 128.5,165.5 Z"/></g>
<g><path style="opacity:0.055" fill="#fefffe" d="M 249.5,165.5 C 250.833,166.167 250.833,166.167 249.5,165.5 Z"/></g>
<g><path style="opacity:0.012" fill="#fefffe" d="M 104.5,166.5 C 105.833,167.167 105.833,167.167 104.5,166.5 Z"/></g>
<g><path style="opacity:0.064" fill="#fefffe" d="M 406.5,166.5 C 407.289,166.783 407.956,167.283 408.5,168C 407.184,168.528 406.517,168.028 406.5,166.5 Z"/></g>
<g><path style="opacity:0.012" fill="#fefffe" d="M 270.5,168.5 C 271.833,169.167 271.833,169.167 270.5,168.5 Z"/></g>
<g><path style="opacity:0.031" fill="#fefffe" d="M 353.5,173.5 C 354.833,174.167 354.833,174.167 353.5,173.5 Z"/></g>
<g><path style="opacity:0.031" fill="#fefffe" d="M 353.5,174.5 C 352.833,175.167 352.833,175.167 353.5,174.5 Z"/></g>
<g><path style="opacity:0.049" fill="#fefffe" d="M 57.5,176.5 C 58.6009,175.402 59.9343,175.235 61.5,176C 60.2068,176.49 58.8734,176.657 57.5,176.5 Z"/></g>
<g><path style="opacity:0.033" fill="#fefffe" d="M 408.5,175.5 C 409.643,175.908 410.643,176.575 411.5,177.5C 409.604,178.639 408.604,177.973 408.5,175.5 Z"/></g>
<g><path style="opacity:0.012" fill="#fefffe" d="M 257.5,177.5 C 258.833,178.167 258.833,178.167 257.5,177.5 Z"/></g>
<g><path style="opacity:0.012" fill="#fefffe" d="M 121.5,180.5 C 122.833,181.167 122.833,181.167 121.5,180.5 Z"/></g>
<g><path style="opacity:0.012" fill="#fefffe" d="M 397.5,193.5 C 398.833,194.167 398.833,194.167 397.5,193.5 Z"/></g>
<g><path style="opacity:0.022" fill="#fefffe" d="M 406.5,199.5 C 407.525,199.897 407.692,200.563 407,201.5C 406.536,200.906 406.369,200.239 406.5,199.5 Z"/></g>
<g><path style="opacity:0.012" fill="#fefffe" d="M 116.5,207.5 C 117.833,208.167 117.833,208.167 116.5,207.5 Z"/></g>
<g><path style="opacity:0.031" fill="#fefffe" d="M 368.5,207.5 C 369.833,208.167 369.833,208.167 368.5,207.5 Z"/></g>
<g><path style="opacity:0.031" fill="#fefffe" d="M 441.5,207.5 C 442.833,208.167 442.833,208.167 441.5,207.5 Z"/></g>
<g><path style="opacity:0.055" fill="#fefffe" d="M 409.5,208.5 C 410.833,209.167 410.833,209.167 409.5,208.5 Z"/></g>
<g><path style="opacity:0.012" fill="#fefffe" d="M 401.5,209.5 C 402.833,210.167 402.833,210.167 401.5,209.5 Z"/></g>
<g><path style="opacity:0.033" fill="#fefffe" d="M 407.5,212.5 C 407.897,211.475 408.563,211.308 409.5,212C 408.906,212.464 408.239,212.631 407.5,212.5 Z"/></g>
<g><path style="opacity:0.012" fill="#fefffe" d="M 191.5,223.5 C 192.833,224.167 192.833,224.167 191.5,223.5 Z"/></g>
<g><path style="opacity:0.031" fill="#fefffe" d="M 477.5,229.5 C 478.833,230.167 478.833,230.167 477.5,229.5 Z"/></g>
<g><path style="opacity:0.012" fill="#fefffe" d="M 242.5,235.5 C 243.833,236.167 243.833,236.167 242.5,235.5 Z"/></g>
<g><path style="opacity:0.012" fill="#fefffe" d="M 209.5,238.5 C 210.833,239.167 210.833,239.167 209.5,238.5 Z"/></g>
<g><path style="opacity:0.031" fill="#fefffe" d="M 301.5,240.5 C 302.833,241.167 302.833,241.167 301.5,240.5 Z"/></g>
<g><path style="opacity:0.012" fill="#fefffe" d="M 437.5,244.5 C 437.897,243.475 438.563,243.308 439.5,244C 438.906,244.464 438.239,244.631 437.5,244.5 Z"/></g>
<g><path style="opacity:0.031" fill="#fefffe" d="M 45.5,244.5 C 46.8333,245.167 46.8333,245.167 45.5,244.5 Z"/></g>
<g><path style="opacity:0.012" fill="#fefffe" d="M 360.5,249.5 C 361.833,250.167 361.833,250.167 360.5,249.5 Z"/></g>
<g><path style="opacity:0.043" fill="#fefffe" d="M 378.5,259.5 C 378.897,258.475 379.563,258.308 380.5,259C 379.906,259.464 379.239,259.631 378.5,259.5 Z"/></g>
<g><path style="opacity:0.012" fill="#fefffe" d="M 385.5,262.5 C 386.833,263.167 386.833,263.167 385.5,262.5 Z"/></g>
<g><path style="opacity:0.012" fill="#fefffe" d="M 208.5,264.5 C 209.833,265.167 209.833,265.167 208.5,264.5 Z"/></g>
<g><path style="opacity:0.012" fill="#fefffe" d="M 206.5,265.5 C 207.525,265.897 207.692,266.563 207,267.5C 206.536,266.906 206.369,266.239 206.5,265.5 Z"/></g>
<g><path style="opacity:0.055" fill="#fefffe" d="M 291.5,272.5 C 291.897,271.475 292.563,271.308 293.5,272C 292.906,272.464 292.239,272.631 291.5,272.5 Z"/></g>
<g><path style="opacity:0.012" fill="#fefffe" d="M 190.5,272.5 C 191.833,273.167 191.833,273.167 190.5,272.5 Z"/></g>
<g><path style="opacity:0.031" fill="#fefffe" d="M 384.5,272.5 C 385.833,273.167 385.833,273.167 384.5,272.5 Z"/></g>
<g><path style="opacity:0.012" fill="#fefffe" d="M 448.5,272.5 C 449.833,273.167 449.833,273.167 448.5,272.5 Z"/></g>
<g><path style="opacity:0.031" fill="#fefffe" d="M 353.5,274.5 C 354.833,275.167 354.833,275.167 353.5,274.5 Z"/></g>
<g><path style="opacity:0.012" fill="#fefffe" d="M 62.5,275.5 C 63.8333,276.167 63.8333,276.167 62.5,275.5 Z"/></g>
<g><path style="opacity:0.012" fill="#fefffe" d="M 329.5,275.5 C 330.833,276.167 330.833,276.167 329.5,275.5 Z"/></g>
<g><path style="opacity:0.022" fill="#fefffe" d="M 373.5,277.5 C 373.897,276.475 374.563,276.308 375.5,277C 374.906,277.464 374.239,277.631 373.5,277.5 Z"/></g>
<g><path style="opacity:0.031" fill="#fefffe" d="M 176.5,277.5 C 177.833,278.167 177.833,278.167 176.5,277.5 Z"/></g>
<g><path style="opacity:0.031" fill="#fefffe" d="M 296.5,277.5 C 297.833,278.167 297.833,278.167 296.5,277.5 Z"/></g>
<g><path style="opacity:0.031" fill="#fefffe" d="M 360.5,278.5 C 361.833,279.167 361.833,279.167 360.5,278.5 Z"/></g>
<g><path style="opacity:0.012" fill="#fefffe" d="M 1.5,281.5 C 2.83333,282.167 2.83333,282.167 1.5,281.5 Z"/></g>
<g><path style="opacity:0.055" fill="#fefffe" d="M 103.5,282.5 C 104.833,283.167 104.833,283.167 103.5,282.5 Z"/></g>
<g><path style="opacity:0.055" fill="#fefffe" d="M 225.5,293.5 C 226.833,294.167 226.833,294.167 225.5,293.5 Z"/></g>
<g><path style="opacity:0.035" fill="#fefffe" d="M 346.5,293.5 C 348.332,294.14 348.665,295.14 347.5,296.5C 345.481,295.867 345.147,294.867 346.5,293.5 Z"/></g>
<g><path style="opacity:0.012" fill="#fefffe" d="M 350.5,296.5 C 350.897,295.475 351.563,295.308 352.5,296C 351.906,296.464 351.239,296.631 350.5,296.5 Z"/></g>
<g><path style="opacity:0.012" fill="#fefffe" d="M 91.5,296.5 C 92.8333,297.167 92.8333,297.167 91.5,296.5 Z"/></g>
<g><path style="opacity:0.031" fill="#fefffe" d="M 328.5,296.5 C 329.833,297.167 329.833,297.167 328.5,296.5 Z"/></g>
<g><path style="opacity:0.03" fill="#fefffe" d="M 350.5,304.5 C 348.193,303.595 348.193,302.262 350.5,300.5C 350.906,301.557 350.906,302.891 350.5,304.5 Z"/></g>
<g><path style="opacity:0.012" fill="#fefffe" d="M 350.5,304.5 C 351.833,305.167 351.833,305.167 350.5,304.5 Z"/></g>
<g><path style="opacity:0.031" fill="#fefffe" d="M 353.5,305.5 C 354.833,306.167 354.833,306.167 353.5,305.5 Z"/></g>
<g><path style="opacity:0.055" fill="#fefffe" d="M 16.5,320.5 C 17.8333,321.167 17.8333,321.167 16.5,320.5 Z"/></g>
</svg>
