<?xml version="1.0" standalone="no"?>
<!DOCTYPE svg PUBLIC "-//W3C//DTD SVG 20010904//EN"
 "http://www.w3.org/TR/2001/REC-SVG-20010904/DTD/svg10.dtd">
<svg version="1.0" xmlns="http://www.w3.org/2000/svg"
 width="514.000000pt" height="323.000000pt" viewBox="0 0 514.000000 323.000000"
 preserveAspectRatio="xMidYMid meet">

<g transform="translate(0.000000,323.000000) scale(0.100000,-0.100000)"
fill="#000000" stroke="none">
<path d="M3647 3193 c-14 -14 -5 -37 39 -99 133 -186 289 -485 306 -585 10
-62 9 -70 -13 -113 -32 -64 -109 -112 -109 -67 0 27 -30 59 -62 67 -42 9 -48
-31 -13 -90 l26 -45 -42 -40 c-55 -54 -114 -71 -244 -71 -87 0 -106 -3 -128
-20 -36 -28 -90 -172 -84 -225 2 -22 1 -48 -3 -59 -5 -16 -12 -11 -47 30 -62
75 -126 193 -198 368 -74 178 -133 299 -163 336 -20 24 -22 24 -38 8 -17 -16
-16 -21 24 -100 82 -165 133 -300 146 -391 12 -80 13 -203 2 -214 -2 -3 -19 3
-37 12 -91 47 -291 -5 -539 -141 -41 -23 -84 -44 -96 -48 -25 -8 -61 -45 -64
-66 -7 -46 -1 -53 38 -47 64 10 85 16 96 28 8 9 6 10 -9 5 -15 -6 -17 -4 -8 5
6 6 9 17 6 25 -16 42 360 204 474 204 41 0 115 -28 128 -49 3 -6 0 -32 -6 -58
-17 -71 -78 -284 -85 -294 -3 -5 -5 -27 -6 -48 0 -45 28 -90 56 -91 33 0 80
40 119 100 78 119 85 226 26 347 -30 60 -34 77 -34 150 0 46 3 83 6 83 4 0 23
-29 44 -64 21 -36 59 -88 84 -115 38 -41 54 -51 79 -51 44 0 59 28 73 140 6
52 20 115 30 140 l19 45 118 3 c109 3 122 5 182 35 42 21 75 46 95 73 17 23
51 51 80 65 69 33 115 109 116 189 0 55 0 55 17 30 32 -48 70 -80 86 -74 9 4
28 31 43 60 17 34 38 61 60 74 20 12 33 27 33 40 0 18 -3 19 -21 10 -11 -7
-32 -9 -45 -6 -29 8 -62 -22 -71 -64 -3 -17 -9 -30 -14 -30 -10 0 -87 129
-194 325 -148 272 -246 401 -278 368z m-540 -1494 c19 -54 15 -142 -8 -204
-23 -61 -63 -115 -85 -115 -20 0 -18 71 7 155 11 39 27 100 36 138 10 37 22
66 28 64 5 -2 15 -19 22 -38z"/>
<path d="M4282 2918 c-16 -16 -15 -33 3 -48 8 -7 15 -21 15 -31 0 -26 15 -24
34 6 20 31 20 49 0 69 -19 19 -36 20 -52 4z"/>
<path d="M5019 2464 c-9 -11 -10 -20 -2 -32 24 -37 -38 -100 -215 -219 -145
-98 -513 -331 -629 -399 -57 -32 -212 -126 -345 -208 -134 -82 -281 -173 -328
-201 -47 -29 -112 -70 -145 -91 -33 -22 -136 -89 -228 -149 -293 -192 -475
-312 -489 -324 -13 -12 -387 -290 -481 -358 -36 -26 -63 -38 -87 -38 -28 0
-36 -4 -38 -22 -2 -14 5 -27 22 -38 29 -19 46 -13 111 41 22 19 85 67 140 107
55 40 143 105 195 143 52 39 117 86 144 105 26 19 61 43 76 54 50 37 652 436
750 497 153 96 621 382 865 529 72 43 182 112 245 153 63 41 146 94 183 117
38 22 107 70 154 105 46 35 90 64 97 64 13 0 86 116 86 137 0 13 -38 43 -56
43 -6 0 -17 -7 -25 -16z"/>
<path d="M1717 1876 c-8 -19 59 -253 105 -369 17 -42 18 -55 8 -103 -12 -58
-82 -201 -132 -269 -53 -74 -147 -200 -198 -265 -28 -36 -55 -77 -62 -91 -6
-15 -20 -32 -31 -38 -23 -15 -306 -16 -357 -1 -43 12 -100 42 -100 52 0 12
103 83 249 173 72 44 156 97 188 117 32 21 85 54 118 74 87 52 125 83 125 101
0 11 -7 14 -27 10 -43 -8 -95 -30 -128 -53 -17 -12 -75 -47 -130 -79 -120 -69
-341 -215 -429 -285 -53 -42 -86 -60 -86 -47 0 1 -16 49 -36 107 -84 245 -200
390 -314 390 -50 0 -81 -16 -152 -79 -76 -68 -209 -261 -213 -310 -1 -9 -11
-42 -23 -74 -12 -32 -22 -65 -22 -74 0 -19 57 -73 77 -73 21 0 27 29 13 56
-11 19 -11 32 -2 63 7 21 14 58 16 80 3 25 15 56 30 76 14 18 26 42 26 53 0
22 33 55 45 45 4 -5 5 0 2 10 -5 13 13 37 68 92 115 116 153 114 250 -11 61
-77 100 -154 145 -286 42 -125 48 -109 -70 -178 -41 -24 -92 -54 -112 -67 -21
-12 -42 -23 -47 -23 -13 0 -29 50 -30 88 0 57 -41 80 -83 48 -25 -19 -23 -40
3 -33 19 5 20 4 5 -12 -15 -16 -14 -22 9 -69 14 -29 25 -55 25 -59 0 -13 -105
-76 -253 -154 -109 -57 -139 -77 -144 -97 -10 -40 8 -57 66 -60 31 -2 51 1 51
7 0 6 -7 11 -15 11 -33 0 -13 38 38 72 56 37 241 143 269 154 15 5 28 -16 79
-121 45 -95 65 -125 77 -123 30 6 25 37 -24 160 -37 91 -45 123 -38 136 12 19
235 153 248 149 4 -2 15 -23 23 -47 8 -25 21 -59 29 -77 8 -17 14 -34 14 -39
0 -20 195 -444 215 -467 17 -19 17 -19 37 1 l21 20 -22 46 c-11 25 -21 47 -21
49 0 2 -23 53 -52 113 -28 60 -53 114 -54 119 -1 6 -19 48 -39 95 -92 213 -99
286 -21 227 18 -14 50 -33 72 -42 50 -21 217 -36 312 -28 l72 6 0 -35 c0 -53
26 -78 84 -83 106 -9 296 87 296 150 0 38 -30 47 -153 44 -68 -2 -112 1 -114
7 -4 13 76 135 121 184 17 19 42 53 56 75 13 22 27 42 31 45 17 13 116 183
144 247 l32 71 32 -66 c89 -182 184 -332 211 -332 17 0 40 45 40 80 0 41 29
108 56 132 30 26 125 65 187 77 55 10 147 49 256 110 105 58 176 130 153 153
-9 9 -20 4 -44 -19 -82 -76 -293 -178 -408 -197 -63 -11 -160 -64 -221 -123
-70 -66 -54 -75 -132 72 -76 142 -113 234 -126 310 -32 192 -45 228 -104 293
-23 25 -52 29 -60 8z m-27 -1185 c0 -19 -134 -75 -191 -79 -52 -4 -58 -2 -64
18 -12 37 15 52 107 60 124 11 148 11 148 1z"/>
</g>
</svg>
